<svg width="52" height="14" viewBox="0 0 52 14" fill="none" xmlns="http://www.w3.org/2000/svg">
<path d="M7.226 5.71V7.096H0.044V5.71H7.226ZM20.7869 13.126C19.6229 13.126 18.5609 12.856 17.6009 12.316C16.6409 11.764 15.8789 11.002 15.3149 10.03C14.7629 9.046 14.4869 7.942 14.4869 6.718C14.4869 5.494 14.7629 4.396 15.3149 3.424C15.8789 2.44 16.6409 1.678 17.6009 1.138C18.5609 0.585999 19.6229 0.309999 20.7869 0.309999C21.9629 0.309999 23.0309 0.585999 23.9909 1.138C24.9509 1.678 25.7069 2.434 26.2589 3.406C26.8109 4.378 27.0869 5.482 27.0869 6.718C27.0869 7.954 26.8109 9.058 26.2589 10.03C25.7069 11.002 24.9509 11.764 23.9909 12.316C23.0309 12.856 21.9629 13.126 20.7869 13.126ZM20.7869 11.704C21.6629 11.704 22.4489 11.5 23.1449 11.092C23.8529 10.684 24.4049 10.102 24.8009 9.346C25.2089 8.59 25.4129 7.714 25.4129 6.718C25.4129 5.71 25.2089 4.834 24.8009 4.09C24.4049 3.334 23.8589 2.752 23.1629 2.344C22.4669 1.936 21.6749 1.732 20.7869 1.732C19.8989 1.732 19.1069 1.936 18.4109 2.344C17.7149 2.752 17.1629 3.334 16.7549 4.09C16.3589 4.834 16.1609 5.71 16.1609 6.718C16.1609 7.714 16.3589 8.59 16.7549 9.346C17.1629 10.102 17.7149 10.684 18.4109 11.092C19.1189 11.5 19.9109 11.704 20.7869 11.704ZM35.8553 13L32.8673 7.87H30.8873V13H29.2493V0.454H33.2993C34.2473 0.454 35.0453 0.616 35.6933 0.94C36.3533 1.264 36.8453 1.702 37.1693 2.254C37.4933 2.806 37.6553 3.436 37.6553 4.144C37.6553 5.008 37.4033 5.77 36.8993 6.43C36.4073 7.09 35.6633 7.528 34.6673 7.744L37.8173 13H35.8553ZM30.8873 6.556H33.2993C34.1873 6.556 34.8533 6.34 35.2973 5.908C35.7413 5.464 35.9633 4.876 35.9633 4.144C35.9633 3.4 35.7413 2.824 35.2973 2.416C34.8653 2.008 34.1993 1.804 33.2993 1.804H30.8873V6.556ZM51.8393 5.71V7.096H44.6573V5.71H51.8393Z" fill="#919191"/>
</svg>
