<svg width="36" height="36" viewBox="0 0 36 36" fill="none" xmlns="http://www.w3.org/2000/svg">
<path fill-rule="evenodd" clip-rule="evenodd" d="M0 18C0 7.93745 8.26549 0 18 0C27.9252 0 36 8.0748 36 18C36 27.9252 27.9252 36 18 36C8.10273 36 0 27.9386 0 18ZM19.6364 26.1818H21.2727C25.4728 26.1818 27.7815 21.1897 24.905 18C27.7815 14.8103 25.4728 9.81818 21.2727 9.81818H19.6364V8.18182C19.6364 6.01593 16.3636 6.02476 16.3636 8.18182V9.81818H11.4545C9.28865 9.81818 9.29749 13.0909 11.4545 13.0909H13.0909V22.9091H11.4545C9.28865 22.9091 9.29749 26.1818 11.4545 26.1818H16.3636V27.8182C16.3636 29.9841 19.6364 29.9752 19.6364 27.8182V26.1818ZM21.2729 13.0909H16.3638V16.3637H21.2729C23.4359 16.3637 23.4359 13.0909 21.2729 13.0909ZM21.2729 19.6363H16.3638V22.909H21.2729C23.4359 22.909 23.4359 19.6363 21.2729 19.6363Z" fill="#8468F5"/>
</svg>
