<svg width="21" height="24" viewBox="0 0 21 24" fill="none" xmlns="http://www.w3.org/2000/svg">
<path d="M11.2875 10.7491C10.7625 10.6047 10.2375 10.3159 9.84375 9.88268C9.45 9.73827 9.31875 9.30505 9.31875 9.01624C9.31875 8.72742 9.45 8.2942 9.7125 8.14979C10.1062 7.86098 10.5 7.57217 10.8938 7.71657C11.6813 7.71657 12.3375 8.14979 12.7312 8.72742L13.9125 6.99454C13.5188 6.56132 13.125 6.2725 12.7312 5.98369C12.3375 5.69487 11.8125 5.55047 11.2875 5.55047V3.52877H9.7125V5.55047C9.05625 5.69487 8.4 6.12809 7.875 6.70572C7.35 7.42776 6.95625 8.2942 7.0875 9.16064C7.0875 10.0271 7.35 10.8935 7.875 11.4712C8.53125 12.1932 9.45 12.6264 10.2375 13.0596C10.6313 13.204 11.1562 13.4929 11.55 13.7817C11.8125 14.0705 11.9438 14.5037 11.9438 14.9369C11.9438 15.3701 11.8125 15.8034 11.55 16.2366C11.1562 16.6698 10.6313 16.8142 10.2375 16.8142C9.7125 16.8142 9.05625 16.6698 8.6625 16.2366C8.26875 15.9478 7.875 15.5146 7.6125 15.0813L6.3 16.6698C6.69375 17.2474 7.0875 17.6807 7.6125 18.1139C8.26875 18.5471 9.05625 18.9803 9.84375 18.9803V20.8576H11.2875V18.6915C12.075 18.5471 12.7313 18.1139 13.2563 17.5363C13.9125 16.8142 14.3062 15.659 14.3062 14.6481C14.3062 13.7817 14.0437 12.7708 13.3875 12.1932C12.7312 11.4712 12.075 11.0379 11.2875 10.7491ZM10.5 0.640625C4.725 0.640625 0 5.83928 0 12.1932C0 18.5471 4.725 23.7458 10.5 23.7458C16.275 23.7458 21 18.5471 21 12.1932C21 5.83928 16.275 0.640625 10.5 0.640625ZM10.5 22.1573C5.5125 22.1573 1.44375 17.6807 1.44375 12.1932C1.44375 6.70572 5.5125 2.2291 10.5 2.2291C15.4875 2.2291 19.5562 6.70572 19.5562 12.1932C19.5562 17.6807 15.4875 22.1573 10.5 22.1573Z" fill="white"/>
</svg>
