<svg width="36" height="36" viewBox="0 0 36 36" fill="none" xmlns="http://www.w3.org/2000/svg">
<path d="M18.0262 17.9047C18.018 17.9047 18.0086 17.9044 18 17.904C17.991 17.9044 17.9816 17.9047 17.9734 17.9047C15.7395 17.9047 13.7711 17.3392 12.6079 18.4072C11.9107 19.0481 11.6171 19.8202 11.6171 20.6516C11.6171 24.1245 14.3996 24.5509 17.973 24.5509H18.0262C21.5996 24.5509 24.3821 24.1241 24.3821 20.6516C24.3821 19.8199 24.0885 19.0481 23.3914 18.4072C22.2281 17.3392 20.2601 17.9047 18.0262 17.9047ZM14.988 22.6504C14.3081 22.6504 13.7569 21.8869 13.7569 20.9452C13.7569 20.0036 14.3081 19.2405 14.988 19.2405C15.6679 19.2405 16.2199 20.0036 16.2199 20.9452C16.2199 21.8869 15.6679 22.6504 14.988 22.6504ZM21.0116 22.6504C20.3314 22.6504 19.7797 21.8869 19.7797 20.9452C19.7797 20.0036 20.3314 19.2405 21.0116 19.2405C21.6911 19.2405 22.2428 20.0036 22.2428 20.9452C22.2428 21.8869 21.6915 22.6504 21.0116 22.6504ZM18 0C8.05838 0 0 8.05875 0 18C0 27.9412 8.05838 36 18 36C27.9409 36 36 27.9412 36 18C36 8.05875 27.9409 0 18 0ZM19.6418 25.3879C19.3193 25.3879 18.678 25.3886 18 25.3894C17.3216 25.3886 16.68 25.3879 16.3579 25.3879C14.9317 25.3879 9.28425 25.2787 9.28425 18.471C9.28425 16.9046 9.82125 15.7586 10.6999 14.8043C10.5596 14.4581 10.5525 12.4924 11.3006 10.6106C11.3006 10.6106 13.0166 10.7989 15.6131 12.5805C16.1572 12.4301 17.0786 12.3551 18 12.3551C18.9206 12.3551 19.842 12.4298 20.3869 12.5805C22.983 10.7989 24.6986 10.6106 24.6986 10.6106C25.4467 12.4924 25.44 14.4581 25.2998 14.8043C26.1788 15.7586 26.7157 16.905 26.7157 18.471C26.7157 25.2787 21.0679 25.3879 19.6418 25.3879Z" fill="#8468F5"/>
</svg>
