<svg width="54" height="54" viewBox="0 0 54 54" fill="none" xmlns="http://www.w3.org/2000/svg">
<rect x="0.793282" y="0.793282" width="52.4134" height="52.4134" rx="15.0724" stroke="#A6A6A6" stroke-width="1.58656"/>
<g clip-path="url(#clip0_76_1000)">
<path d="M41.9857 27.6388C41.9857 26.3809 41.8836 25.463 41.6627 24.511H27.2988V30.1885H35.7301C35.5602 31.5995 34.6423 33.7243 32.6024 35.1521L32.5738 35.3422L37.1154 38.8605L37.43 38.8919C40.3198 36.2231 41.9857 32.2964 41.9857 27.6388Z" fill="#4285F4"/>
<path d="M27.2988 42.5977C31.4295 42.5977 34.8971 41.2377 37.43 38.892L32.6024 35.1522C31.3105 36.0531 29.5766 36.682 27.2988 36.682C23.2532 36.682 19.8195 34.0133 18.5954 30.3246L18.416 30.3399L13.6936 33.9946L13.6318 34.1663C16.1476 39.1638 21.3152 42.5977 27.2988 42.5977Z" fill="#34A853"/>
<path d="M18.5954 30.3246C18.2725 29.3727 18.0855 28.3527 18.0855 27.2988C18.0855 26.2448 18.2725 25.225 18.5784 24.273L18.5699 24.0703L13.7883 20.3569L13.6318 20.4313C12.595 22.5052 12 24.834 12 27.2988C12 29.7636 12.595 32.0924 13.6318 34.1662L18.5954 30.3246Z" fill="#FBBC05"/>
<path d="M27.2988 17.9155C30.1716 17.9155 32.1094 19.1564 33.2143 20.1934L37.532 15.9777C34.8803 13.5129 31.4295 12 27.2988 12C21.3152 12 16.1476 15.4337 13.6318 20.4313L18.5784 24.273C19.8195 20.5843 23.2532 17.9155 27.2988 17.9155Z" fill="#EB4335"/>
</g>
<defs>
<clipPath id="clip0_76_1000">
<rect width="30" height="30.7031" fill="white" transform="translate(12 12)"/>
</clipPath>
</defs>
</svg>
