<svg width="1512" height="982" viewBox="0 0 1512 982" fill="none" xmlns="http://www.w3.org/2000/svg">
<g opacity="0.2">
<rect width="11.0284" height="315.013" rx="5.51421" transform="matrix(-0.858008 0.513636 0.633622 0.773643 446.623 99.9736)" fill="url(#paint0_linear_3_246)"/>
<rect width="8.27132" height="236.587" rx="4.13566" transform="matrix(-0.858008 0.513636 0.633622 0.773643 982.849 77.7528)" fill="url(#paint1_linear_3_246)"/>
<rect opacity="0.6" width="41.3566" height="522.843" rx="20.6783" transform="matrix(-0.858008 0.513636 0.633622 0.773643 497.192 76.5183)" fill="url(#paint2_linear_3_246)"/>
<rect opacity="0.6" width="31.7067" height="392.132" rx="15.8534" transform="matrix(-0.858008 0.513636 0.633622 0.773643 563.998 -59.2756)" fill="url(#paint3_linear_3_246)"/>
<rect width="26.1925" height="522.843" rx="13.0963" transform="matrix(-0.858008 0.513636 0.633622 0.773643 1204.71 -109)" fill="url(#paint4_linear_3_246)"/>
<rect opacity="0.312783" width="6.66557" height="315.865" rx="3.33279" transform="matrix(-0.849464 0.527646 0.647566 0.762009 920.769 780.177)" fill="url(#paint5_linear_3_246)"/>
<rect width="6.66557" height="131.064" rx="3.33279" transform="matrix(-0.849464 0.527646 0.647566 0.762009 844.24 743.142)" fill="url(#paint6_linear_3_246)"/>
<rect opacity="0.169044" width="9.42006" height="98.2983" rx="4.71003" transform="matrix(-0.849464 0.527646 0.647566 0.762009 140.49 286.028)" fill="url(#paint7_linear_3_246)"/>
<rect opacity="0.312783" width="11.0015" height="315.865" rx="5.50076" transform="matrix(-0.849464 0.527646 0.647566 0.762009 1117.94 846.839)" fill="url(#paint8_linear_3_246)"/>
<rect width="6.66557" height="315.865" rx="3.33279" transform="matrix(-0.849464 0.527646 0.647566 0.762009 -0.467957 525.872)" fill="url(#paint9_linear_3_246)"/>
<rect opacity="0.143965" width="16.5023" height="315.865" rx="8.25115" transform="matrix(-0.849464 0.527646 0.647566 0.762009 -46.9819 525.872)" fill="url(#paint10_linear_3_246)"/>
</g>
<defs>
<linearGradient id="paint0_linear_3_246" x1="-6.26192" y1="-524.567" x2="-48.1668" y2="-524.046" gradientUnits="userSpaceOnUse">
<stop stop-color="#8468F5"/>
<stop offset="1" stop-color="#EC74E7"/>
</linearGradient>
<linearGradient id="paint1_linear_3_246" x1="33.8805" y1="-1057.33" x2="-36.6667" y2="-1056.86" gradientUnits="userSpaceOnUse">
<stop stop-color="#8468F5"/>
<stop offset="1" stop-color="#EC74E7"/>
</linearGradient>
<linearGradient id="paint2_linear_3_246" x1="-23.4822" y1="-870.65" x2="-180.526" y2="-866.241" gradientUnits="userSpaceOnUse">
<stop stop-color="#8468F5"/>
<stop offset="1" stop-color="#EC74E7"/>
</linearGradient>
<linearGradient id="paint3_linear_3_246" x1="110.367" y1="-2035.31" x2="-222.329" y2="-2031.52" gradientUnits="userSpaceOnUse">
<stop stop-color="#8468F5"/>
<stop offset="0.946455" stop-color="#E673E8"/>
<stop offset="1" stop-color="#EC74E7"/>
</linearGradient>
<linearGradient id="paint4_linear_3_246" x1="-14.8721" y1="-870.65" x2="-114.38" y2="-868.881" gradientUnits="userSpaceOnUse">
<stop stop-color="#8468F5"/>
<stop offset="1" stop-color="#EC74E7"/>
</linearGradient>
<linearGradient id="paint5_linear_3_246" x1="-3.7847" y1="-525.986" x2="-29.1145" y2="-525.796" gradientUnits="userSpaceOnUse">
<stop stop-color="#8468F5"/>
<stop offset="1" stop-color="#EC74E7"/>
</linearGradient>
<linearGradient id="paint6_linear_3_246" x1="-3.7847" y1="-218.251" x2="-29.1076" y2="-217.794" gradientUnits="userSpaceOnUse">
<stop stop-color="#8468F5"/>
<stop offset="1" stop-color="#EC74E7"/>
</linearGradient>
<linearGradient id="paint7_linear_3_246" x1="-5.3487" y1="-163.689" x2="-41.1064" y2="-162.472" gradientUnits="userSpaceOnUse">
<stop stop-color="#8468F5"/>
<stop offset="1" stop-color="#EC74E7"/>
</linearGradient>
<linearGradient id="paint8_linear_3_246" x1="-6.24665" y1="-525.986" x2="-48.0494" y2="-525.469" gradientUnits="userSpaceOnUse">
<stop stop-color="#8468F5"/>
<stop offset="1" stop-color="#EC74E7"/>
</linearGradient>
<linearGradient id="paint9_linear_3_246" x1="-3.7847" y1="-525.986" x2="-29.1145" y2="-525.796" gradientUnits="userSpaceOnUse">
<stop stop-color="#8468F5"/>
<stop offset="1" stop-color="#EC74E7"/>
</linearGradient>
<linearGradient id="paint10_linear_3_246" x1="-9.36998" y1="-525.986" x2="-72.0621" y2="-524.823" gradientUnits="userSpaceOnUse">
<stop stop-color="#8468F5"/>
<stop offset="1" stop-color="#EC74E7"/>
</linearGradient>
</defs>
</svg>
