<svg width="23" height="18" viewBox="0 0 23 18" fill="none" xmlns="http://www.w3.org/2000/svg">
<path d="M22.075 11.4636L22.4688 10.1515L21.7375 8.63526L21.1075 8.46816L19.6337 6.22159C19.6337 4.53203 18.7338 4.14213 17.5694 4.17926V7.23038L19.7744 9.13036L19.33 9.68117L19.4763 11.4945L20.5619 11.9958L22.075 11.4636ZM19.8362 9.11799L21.1694 8.4434L19.8362 9.11799ZM11.5 5.93072C11.8222 5.93108 12.1339 6.0572 12.3795 6.28664C12.6252 6.51608 12.7889 6.83396 12.8416 7.18373C12.8942 7.5335 12.8324 7.89247 12.6671 8.19679C12.5017 8.50111 12.2437 8.73104 11.9388 8.84568L12.535 12.0144L11.5 12.33L10.4537 12.0144L11.05 8.84568C10.7441 8.73072 10.4854 8.49977 10.3202 8.19415C10.1549 7.88853 10.0939 7.52818 10.148 7.17759C10.2021 6.82699 10.3679 6.50903 10.6156 6.28058C10.8633 6.05213 11.1768 5.92812 11.5 5.93072V5.93072ZM13.3338 15.0284C13.4125 15.9443 13.57 16.885 13.7444 16.885H17.5862C18.8406 16.885 18.8575 11.3893 17.6762 11.3893H17.0181L13.3338 15.0284ZM0.925 11.4636L0.53125 10.1515L1.2625 8.63526L1.8925 8.46816L3.36625 6.22159C3.36625 4.53203 4.26625 4.14213 5.43063 4.17926V7.23038L3.22562 9.11799L3.67 9.6688L3.52375 11.4821L2.43812 11.9834L0.925 11.4636ZM3.22562 9.11799L1.8925 8.4434L3.22562 9.11799ZM9.73375 15.0284C9.655 15.9443 9.4975 16.885 9.3175 16.885H5.47562C4.22687 16.885 4.20438 11.3893 5.38563 11.3893H6.04938L9.73375 15.0284ZM14.8356 1.56756H13.1481V1.0972C13.1809 0.877013 13.2838 0.676816 13.4383 0.532359C13.5929 0.387903 13.7891 0.308594 13.9919 0.308594C14.1947 0.308594 14.3909 0.387903 14.5454 0.532359C14.7 0.676816 14.8028 0.877013 14.8356 1.0972V1.56756ZM9.88 1.56756H8.1925V1.0972C8.22529 0.877013 8.32815 0.676816 8.4827 0.532359C8.63726 0.387903 8.83345 0.308594 9.03625 0.308594C9.23905 0.308594 9.43524 0.387903 9.5898 0.532359C9.74435 0.676816 9.84721 0.877013 9.88 1.0972V1.56756Z" stroke="white" stroke-width="0.5625" stroke-linecap="round" stroke-linejoin="round"/>
</svg>
