<svg width="21" height="24" viewBox="0 0 21 24" fill="none" xmlns="http://www.w3.org/2000/svg">
<path fill-rule="evenodd" clip-rule="evenodd" d="M10.5 22.3698C15.719 22.3698 19.95 17.7147 19.95 11.9725C19.95 6.23029 15.719 1.57518 10.5 1.57518C5.28097 1.57518 1.05 6.23029 1.05 11.9725C1.05 17.7147 5.28097 22.3698 10.5 22.3698ZM10.5 23.5251C16.2991 23.5251 21 18.353 21 11.9725C21 5.59201 16.2991 0.419922 10.5 0.419922C4.70085 0.419922 0 5.59201 0 11.9725C0 18.353 4.70085 23.5251 10.5 23.5251Z" fill="#F8F8F8"/>
<path d="M4.2 18.6899C4.2 18.0932 4.6053 17.589 5.145 17.5231C9.19537 17.0298 11.823 17.0743 15.8644 17.5341C16.0663 17.5574 16.2575 17.6449 16.4149 17.7858C16.5723 17.9268 16.6889 18.1151 16.7506 18.3278C16.8123 18.5405 16.8164 18.7684 16.7623 18.9836C16.7082 19.1988 16.5984 19.392 16.4461 19.5396C11.6765 24.1139 8.95072 24.0509 4.536 19.5442C4.32075 19.3247 4.2 19.0128 4.2 18.6905V18.6899Z" fill="#F8F8F8"/>
<path fill-rule="evenodd" clip-rule="evenodd" d="M15.8104 18.109C11.801 17.6527 9.21113 17.61 5.20223 18.098C5.07027 18.115 4.94861 18.1848 4.86056 18.2943C4.77251 18.4038 4.72424 18.5451 4.72501 18.6913C4.72501 18.8565 4.78748 19.013 4.89301 19.1216C7.08121 21.3547 8.73916 22.3638 10.3598 22.3702C11.9863 22.3765 13.7335 21.3755 16.1012 19.1054C16.1765 19.0318 16.2306 18.9357 16.2571 18.8288C16.2836 18.7219 16.2813 18.6088 16.2505 18.5033C16.2197 18.3978 16.1617 18.3045 16.0836 18.2346C16.0054 18.1647 15.9105 18.1213 15.8104 18.1096V18.109ZM5.08726 16.9497C9.18016 16.4512 11.8461 16.4963 15.9191 16.9601C16.2227 16.995 16.5104 17.1265 16.7472 17.3385C16.9839 17.5506 17.1593 17.834 17.2519 18.154C17.3445 18.474 17.3503 18.8168 17.2685 19.1404C17.1868 19.464 17.021 19.7544 16.7916 19.9759C14.3897 22.2795 12.3895 23.5341 10.3567 23.5254C8.31811 23.5174 6.40606 22.2414 4.17953 19.9684C4.02012 19.805 3.89303 19.6073 3.80623 19.3874C3.71942 19.1676 3.67475 18.9304 3.67501 18.6907C3.67424 18.26 3.81791 17.8442 4.0785 17.5228C4.33909 17.2015 4.69828 16.9972 5.08726 16.9491V16.9497Z" fill="#F8F8F8"/>
<path d="M14.7 9.66204C14.7 10.8876 14.2575 12.063 13.4699 12.9296C12.6822 13.7962 11.6139 14.2831 10.5 14.2831C9.38609 14.2831 8.31781 13.7962 7.53015 12.9296C6.7425 12.063 6.3 10.8876 6.3 9.66204C6.3 8.43647 6.7425 7.26109 7.53015 6.39448C8.31781 5.52787 9.38609 5.04102 10.5 5.04102C11.6139 5.04102 12.6822 5.52787 13.4699 6.39448C14.2575 7.26109 14.7 8.43647 14.7 9.66204Z" fill="#F8F8F8"/>
<path fill-rule="evenodd" clip-rule="evenodd" d="M10.5 13.1278C11.3354 13.1278 12.1367 12.7627 12.7274 12.1127C13.3181 11.4628 13.65 10.5812 13.65 9.66204C13.65 8.74286 13.3181 7.86133 12.7274 7.21137C12.1367 6.56142 11.3354 6.19627 10.5 6.19627C9.66457 6.19627 8.86336 6.56142 8.27262 7.21137C7.68188 7.86133 7.35 8.74286 7.35 9.66204C7.35 10.5812 7.68188 11.4628 8.27262 12.1127C8.86336 12.7627 9.66457 13.1278 10.5 13.1278ZM10.5 14.2831C11.6139 14.2831 12.6822 13.7962 13.4699 12.9296C14.2575 12.063 14.7 10.8876 14.7 9.66204C14.7 8.43647 14.2575 7.26109 13.4699 6.39448C12.6822 5.52787 11.6139 5.04102 10.5 5.04102C9.38609 5.04102 8.31781 5.52787 7.53015 6.39448C6.7425 7.26109 6.3 8.43647 6.3 9.66204C6.3 10.8876 6.7425 12.063 7.53015 12.9296C8.31781 13.7962 9.38609 14.2831 10.5 14.2831Z" fill="#F8F8F8"/>
</svg>
