<svg width="22" height="29" viewBox="0 0 22 29" fill="none" xmlns="http://www.w3.org/2000/svg">
<path d="M0 4.28638V25.4578C0 26.3936 0.337887 27.2911 0.939329 27.9528C1.54077 28.6146 2.3565 28.9863 3.20707 28.9863H20.2045C20.4597 28.9863 20.7044 28.8748 20.8849 28.6763C21.0653 28.4777 21.1667 28.2085 21.1667 27.9277C21.1667 27.647 21.0653 27.3777 20.8849 27.1792C20.7044 26.9807 20.4597 26.8692 20.2045 26.8692H3.20707C2.86684 26.8692 2.54055 26.7205 2.29997 26.4558C2.0594 26.1911 1.92424 25.8321 1.92424 25.4578H20.2045C20.4597 25.4578 20.7044 25.3462 20.8849 25.1477C21.0653 24.9492 21.1667 24.6799 21.1667 24.3992V4.28638C21.1667 3.823 21.0837 3.36416 20.9225 2.93605C20.7614 2.50795 20.5251 2.11896 20.2273 1.7913C19.9295 1.46365 19.576 1.20374 19.1869 1.02641C18.7978 0.849081 18.3808 0.757812 17.9596 0.757812H3.20707C2.3565 0.757812 1.54077 1.12957 0.939329 1.7913C0.337887 2.45304 0 3.35054 0 4.28638ZM8.9798 9.25177C8.97377 9.52809 8.86975 9.79086 8.68997 9.98392C8.51018 10.177 8.2689 10.285 8.01768 10.2849C7.05556 10.2849 7.05556 9.22495 7.05556 9.22495V9.21225C7.05623 9.14906 7.05966 9.08594 7.06582 9.02312C7.12257 8.4779 7.30835 7.95861 7.60461 7.51713C8.18701 6.65192 9.2338 6.01819 10.9207 6.05066C12.1394 6.07465 13.2208 6.6364 13.8982 7.56088C14.587 8.5023 14.8192 9.77682 14.3625 11.0316C13.8982 12.3089 12.8475 12.817 12.2433 13.1078L12.1792 13.1402C11.82 13.3138 11.6494 13.4042 11.5467 13.4945L11.5455 13.4959V14.5178C11.5456 14.7985 11.4444 15.0679 11.2641 15.2665C11.0838 15.4652 10.8391 15.5769 10.584 15.5771C10.3288 15.5773 10.084 15.4659 9.90347 15.2675C9.72291 15.0691 9.62138 14.8 9.62121 14.5192V13.4606C9.62121 12.7225 9.94449 12.1946 10.3434 11.8417C10.6642 11.5594 11.0682 11.3647 11.3518 11.2264L11.4005 11.2024C12.0958 10.865 12.4268 10.6561 12.5769 10.244C12.665 10.0224 12.6951 9.77816 12.6638 9.53876C12.6325 9.29937 12.5411 9.07434 12.3998 8.88903C12.115 8.50089 11.5929 8.1805 10.8874 8.16779C9.68792 8.14521 9.29024 8.57005 9.1517 8.77753C9.05995 8.91456 9.00085 9.07469 8.9798 9.2433V9.25177ZM11.8662 18.4006C11.8662 18.775 11.731 19.134 11.4904 19.3987C11.2499 19.6633 10.9236 19.812 10.5833 19.812C10.2431 19.812 9.91682 19.6633 9.67624 19.3987C9.43566 19.134 9.30051 18.775 9.30051 18.4006C9.30051 18.0263 9.43566 17.6673 9.67624 17.4026C9.91682 17.1379 10.2431 16.9892 10.5833 16.9892C10.9236 16.9892 11.2499 17.1379 11.4904 17.4026C11.731 17.6673 11.8662 18.0263 11.8662 18.4006Z" fill="white"/>
</svg>
