<svg width="36" height="36" viewBox="0 0 36 36" fill="none" xmlns="http://www.w3.org/2000/svg">
<path fill-rule="evenodd" clip-rule="evenodd" d="M0 18C0 8.05921 8.05921 0 18 0C27.9408 0 36 8.05921 36 18C36 27.9408 27.9408 36 18 36C8.05921 36 0 27.9408 0 18ZM29.4423 21.1312C29.4423 20.8384 29.4114 20.5515 29.3631 20.2679C30.2857 19.7759 30.869 18.8279 30.8701 17.7621C30.8701 16.1906 29.5914 14.9123 28.0203 14.9123C27.2753 14.9123 26.5848 15.2121 26.0566 15.7221C24.1139 14.4361 21.4833 13.6167 18.5708 13.5124L20.1618 8.48237L24.4682 9.49663C24.4679 9.50677 24.4665 9.51635 24.4651 9.52589C24.4635 9.5368 24.462 9.54765 24.462 9.55924C24.462 10.8438 25.5072 11.8898 26.7925 11.8898C28.0767 11.8898 29.1222 10.8438 29.1222 9.55924C29.1222 8.27466 28.0767 7.22946 26.7925 7.22946C25.8058 7.22946 24.9654 7.84708 24.6258 8.71402L19.984 7.62132C19.7818 7.57271 19.5748 7.68982 19.5114 7.8898L17.7381 13.4984C14.6924 13.5353 11.9332 14.3595 9.90543 15.6816C9.38099 15.1981 8.69745 14.9127 7.97966 14.9127C6.40892 14.9127 5.13133 16.1902 5.13133 17.7621C5.13133 18.7797 5.67787 19.7085 6.54261 20.2156C6.4881 20.5161 6.45201 20.8203 6.45201 21.1312C6.45201 25.344 11.608 28.7709 17.9466 28.7709C24.2855 28.7709 29.4423 25.344 29.4423 21.1312ZM26.7921 11.0917C27.6366 11.0917 28.3234 10.4041 28.3234 9.55887C28.3234 8.71365 27.6366 8.02679 26.7921 8.02679C25.9469 8.02679 25.2586 8.71365 25.2586 9.55887C25.2586 10.4041 25.9469 11.0917 26.7921 11.0917ZM9.24329 16.1541C8.88347 15.872 8.44042 15.7096 7.97933 15.7096C6.84869 15.7096 5.92945 16.6303 5.92945 17.7617C5.92945 18.4173 6.24581 19.022 6.75956 19.4024C7.18604 18.1819 8.05114 17.0734 9.24329 16.1541ZM12.398 19.7177C12.398 18.7826 13.1589 18.0217 14.094 18.0217C15.0291 18.0217 15.7896 18.7826 15.7896 19.7177C15.7896 20.6528 15.0294 21.4133 14.094 21.4133C13.1585 21.4133 12.398 20.6528 12.398 19.7177ZM22.1145 24.7455C21.2601 25.6007 19.9184 26.0158 18.0137 26.0158C18.0127 26.0158 18.0117 26.0156 18.0108 26.0153C18.0096 26.015 18.0085 26.0146 18.0074 26.0142C18.0062 26.0137 18.0049 26.0133 18.0036 26.0129C18.0025 26.0126 18.0013 26.0124 18 26.0124C17.9987 26.0124 17.9975 26.0127 17.9962 26.013C17.9951 26.0133 17.994 26.0137 17.9928 26.0141C17.9905 26.0149 17.9882 26.0158 17.9857 26.0158C16.0809 26.0158 14.7396 25.6007 13.8848 24.7455C13.7294 24.5901 13.7294 24.3378 13.8848 24.1817C14.0409 24.0263 14.2932 24.0263 14.4494 24.1817C15.1465 24.8796 16.303 25.2181 17.9857 25.2181C17.9882 25.2181 17.9905 25.2188 17.9928 25.2195L17.9928 25.2195C17.9951 25.2203 17.9974 25.221 18 25.221C18.0027 25.221 18.0051 25.2202 18.0074 25.2194C18.0084 25.2191 18.0095 25.2187 18.0106 25.2185C18.0116 25.2182 18.0126 25.2181 18.0137 25.2181C19.6967 25.2181 20.8535 24.8792 21.5507 24.1817C21.7068 24.0263 21.9591 24.0263 22.1153 24.1817C22.2707 24.3378 22.2707 24.5905 22.1145 24.7455ZM21.9123 21.4133C20.978 21.4133 20.2167 20.6535 20.2167 19.7177C20.2167 18.7819 20.9773 18.0217 21.9123 18.0217C22.8474 18.0217 23.6079 18.7826 23.6079 19.7177C23.6079 20.6528 22.8474 21.4133 21.9123 21.4133ZM26.7045 16.1932C27.0713 15.886 27.5302 15.7096 28.0192 15.7096C29.1514 15.7096 30.0706 16.6303 30.0706 17.7617C30.0706 18.4604 29.7211 19.0875 29.1572 19.4628C28.7444 18.2357 27.8892 17.1198 26.7045 16.1932Z" fill="#8468F5"/>
</svg>
