<svg width="21" height="24" viewBox="0 0 21 24" fill="none" xmlns="http://www.w3.org/2000/svg">
<path d="M6.29827 19.0552C5.14358 19.0552 4.20934 20.0946 4.20934 21.3651C4.20934 22.6355 5.14358 23.6749 6.29827 23.6749C7.45295 23.6749 8.39769 22.6355 8.39769 21.3651C8.39769 20.0946 7.45295 19.0552 6.29827 19.0552ZM16.7954 19.0552C15.6407 19.0552 14.7065 20.0946 14.7065 21.3651C14.7065 22.6355 15.6407 23.6749 16.7954 23.6749C17.9501 23.6749 18.8948 22.6355 18.8948 21.3651C18.8948 20.0946 17.9501 19.0552 16.7954 19.0552ZM15.2733 13.2805C16.0606 13.2805 16.7534 12.807 17.1103 12.0909L20.8683 4.59536C20.9567 4.4203 21.0021 4.22286 20.9999 4.02257C20.9977 3.82229 20.9481 3.6261 20.8558 3.45343C20.7635 3.28075 20.6319 3.13757 20.4739 3.03806C20.3159 2.93855 20.1371 2.88615 19.955 2.88605H4.41928L3.43255 0.576172H0V2.88605H2.09942L5.87838 11.652L4.46127 14.4701C3.69498 16.0177 4.70271 17.9003 6.29827 17.9003H18.8948V15.5904H6.29827L7.45295 13.2805H15.2733ZM5.41651 5.19593H18.1705L15.2733 10.9706H7.90432L5.41651 5.19593Z" fill="white"/>
</svg>
