<svg width="54" height="54" viewBox="0 0 54 54" fill="none" xmlns="http://www.w3.org/2000/svg">
<rect x="0.793282" y="0.793282" width="52.4134" height="52.4134" rx="15.0724" stroke="#A6A6A6" stroke-width="1.58656"/>
<path d="M42.834 17.8341C41.7309 18.3228 40.5608 18.6436 39.3627 18.7858C40.6107 18.0378 41.5689 16.8533 42.0201 15.442C40.8337 16.146 39.5358 16.642 38.1822 16.9086C37.0797 15.7341 35.509 15 33.7706 15C30.4327 15 27.7265 17.7061 27.7265 21.0438C27.7265 21.5175 27.78 21.9788 27.883 22.4212C22.8599 22.1691 18.4065 19.763 15.4255 16.1063C14.9053 16.999 14.6073 18.0373 14.6073 19.1448C14.6073 21.2417 15.6744 23.0915 17.296 24.1754C16.3362 24.1454 15.3975 23.8861 14.5584 23.4194C14.558 23.4447 14.558 23.47 14.558 23.4955C14.558 26.4238 16.6413 28.8666 19.4062 29.4218C18.5161 29.6639 17.5826 29.6993 16.6768 29.5254C17.4458 31.9266 19.678 33.6739 22.3226 33.7228C20.2541 35.3437 17.648 36.31 14.8165 36.31C14.3286 36.31 13.8475 36.2814 13.3747 36.2256C16.0494 37.9404 19.2263 38.941 22.6394 38.941C33.7565 38.941 39.8356 29.7314 39.8356 21.7447C39.8356 21.4826 39.8299 21.2219 39.8181 20.9628C41.0014 20.1074 42.0227 19.0479 42.834 17.8341" fill="#55ACEE"/>
</svg>
