<svg width="24" height="28" viewBox="0 0 24 28" fill="none" xmlns="http://www.w3.org/2000/svg">
<path d="M7.39332 11.583H7.59999C7.55025 11.0935 7.5705 10.5985 7.65999 10.116C7.4057 10.1696 7.14287 10.1441 6.90099 10.0425C6.65911 9.94089 6.44775 9.76714 6.29062 9.54074C6.13348 9.31433 6.03679 9.04424 6.01138 8.76075C5.98598 8.47726 6.03287 8.19159 6.14679 7.93579C6.26072 7.67998 6.43717 7.46416 6.65635 7.31253C6.87554 7.16091 7.12879 7.07947 7.38769 7.07737C7.64659 7.07526 7.90091 7.15257 8.12211 7.30061C8.34331 7.44865 8.52264 7.66158 8.63999 7.9155C8.9372 7.53834 9.28579 7.2142 9.67332 6.95462C9.4147 6.51992 9.0579 6.16656 8.63786 5.92916C8.21782 5.69175 7.74895 5.57844 7.27715 5.60032C6.80535 5.62219 6.3468 5.77851 5.9464 6.05395C5.54601 6.32939 5.21749 6.71452 4.99303 7.17163C4.76856 7.62873 4.65584 8.14214 4.6659 8.66158C4.67596 9.18102 4.80846 9.68868 5.05043 10.1348C5.29239 10.581 5.63552 10.9504 6.04622 11.2068C6.45692 11.4632 6.92111 11.5979 7.39332 11.5977V11.583Z" fill="white"/>
<path d="M8.66669 14.2018C8.28879 13.7307 7.99884 13.1824 7.81335 12.5881H7.39335C6.60186 12.5567 5.81293 12.7045 5.07552 13.0225C4.33812 13.3404 3.66798 13.8217 3.10669 14.4365L2.94669 14.6419V19.7764H4.28002V15.2067C5.15383 14.4125 6.26048 13.9954 7.39335 14.0331C7.82238 14.0334 8.24985 14.0901 8.66669 14.2018Z" fill="white"/>
<path d="M20.9 14.4069C20.3462 13.7979 19.6848 13.3203 18.9567 13.0037C18.2286 12.687 17.4492 12.538 16.6666 12.5658C16.4533 12.5658 16.2666 12.5658 16.0666 12.6098C15.8712 13.2213 15.565 13.7827 15.1666 14.2602C15.6541 14.1053 16.1593 14.0287 16.6666 14.0328C17.7915 13.9923 18.8913 14.4043 19.76 15.1917V19.7907H21.0933V14.6122L20.9 14.4069Z" fill="white"/>
<path d="M11.9067 14.3192C12.4961 14.3192 13.0722 14.1269 13.5623 13.7666C14.0523 13.4063 14.4343 12.8943 14.6598 12.2952C14.8854 11.6961 14.9444 11.0368 14.8294 10.4008C14.7144 9.76479 14.4306 9.18058 14.0138 8.72204C13.5971 8.2635 13.0661 7.95123 12.488 7.82472C11.91 7.69821 11.3108 7.76314 10.7663 8.0113C10.2217 8.25946 9.75633 8.6797 9.42889 9.21889C9.10144 9.75807 8.92667 10.392 8.92667 11.0404C8.92667 11.91 9.24063 12.744 9.79949 13.3589C10.3583 13.9737 11.1163 14.3192 11.9067 14.3192ZM11.9067 9.23605C12.2323 9.23605 12.5507 9.3423 12.8215 9.54138C13.0923 9.74046 13.3034 10.0234 13.428 10.3545C13.5526 10.6855 13.5852 11.0498 13.5217 11.4012C13.4582 11.7527 13.3013 12.0755 13.071 12.3289C12.8407 12.5823 12.5473 12.7548 12.2279 12.8247C11.9085 12.8946 11.5774 12.8587 11.2765 12.7216C10.9756 12.5845 10.7185 12.3523 10.5375 12.0543C10.3566 11.7564 10.26 11.4061 10.26 11.0478C10.26 10.5673 10.4335 10.1065 10.7423 9.76669C11.0511 9.42693 11.4699 9.23605 11.9067 9.23605Z" fill="white"/>
<path d="M12.0667 15.3673C11.1952 15.3335 10.3266 15.4941 9.51316 15.8395C8.69968 16.1849 7.95818 16.7079 7.33332 17.3771L7.16666 17.5825V22.959C7.16925 23.1108 7.19912 23.2607 7.25456 23.3998C7.30999 23.5389 7.38989 23.6645 7.48966 23.7695C7.58942 23.8745 7.70708 23.9568 7.83586 24.0115C7.96463 24.0663 8.10198 24.0925 8.23999 24.0886H15.8867C16.0247 24.0925 16.162 24.0663 16.2908 24.0115C16.4196 23.9568 16.5372 23.8745 16.637 23.7695C16.7368 23.6645 16.8167 23.5389 16.8721 23.3998C16.9275 23.2607 16.9574 23.1108 16.96 22.959V17.5678L16.7933 17.3624C16.1707 16.693 15.4302 16.1707 14.6173 15.8276C13.8045 15.4845 12.9365 15.3278 12.0667 15.3673ZM15.62 22.6142H8.48666V18.1692C9.49424 17.2631 10.7659 16.7889 12.0667 16.8343C13.3573 16.7865 14.6199 17.2557 15.62 18.1546V22.6142Z" fill="white"/>
<path d="M17.58 9.69727C17.3978 9.88795 17.1703 10.0181 16.9238 10.0726C16.6772 10.1271 16.4217 10.1038 16.1867 10.0053C16.2526 10.3379 16.2861 10.6772 16.2867 11.0176C16.2945 11.1837 16.2945 11.3502 16.2867 11.5163C16.4122 11.541 16.5392 11.5557 16.6667 11.5603C17.0969 11.5587 17.5206 11.4449 17.903 11.2281C18.2855 11.0113 18.6157 10.6979 18.8667 10.3134C18.4134 10.1761 17.9802 9.96861 17.58 9.69727Z" fill="white"/>
<path d="M15.3 5.97852C14.8981 6.23474 14.5611 6.59793 14.32 7.03475C14.7048 7.31629 15.0468 7.66285 15.3334 8.06165C15.4171 7.82628 15.5522 7.6172 15.7267 7.45284C15.5215 6.98619 15.3779 6.48976 15.3 5.97852Z" fill="white"/>
<path d="M20.22 8.72168C22.0609 8.72168 23.5533 7.07969 23.5533 5.0542C23.5533 3.02871 22.0609 1.38672 20.22 1.38672C18.379 1.38672 16.8867 3.02871 16.8867 5.0542C16.8867 7.07969 18.379 8.72168 20.22 8.72168Z" fill="white"/>
</svg>
